
<svg width="162" height="165" viewBox="0 0 162 165" fill="none" xmlns="http://www.w3.org/2000/svg">
<rect x="0.0244141" y="21.3591" width="100" height="145" rx="10" transform="rotate(-11.975 0.0244141 21.3591)" fill="#6366F1"/>
<rect x="62.2744" y="7.03357" width="100" height="145" rx="10" transform="rotate(7.88179 62.2744 7.03357)" fill="#FFA360"/>
<path d="M93.7618 104.497L80.9173 102.853L85.9956 63.1766L99.2469 64.8726C103.134 65.3702 106.371 66.5918 108.958 68.5375C111.546 70.4703 113.393 73.0105 114.5 76.1583C115.621 79.2948 115.918 82.923 115.391 87.0431C114.862 91.176 113.652 94.6311 111.76 97.4082C109.882 100.187 107.42 102.195 104.373 103.433C101.329 104.658 97.7914 105.013 93.7618 104.497ZM87.5731 98.3883L94.1019 99.224C97.1241 99.6108 99.7089 99.364 101.856 98.4837C104.005 97.5905 105.716 96.1226 106.988 94.0801C108.262 92.0246 109.1 89.4277 109.502 86.2892C109.9 83.1766 109.741 80.4718 109.024 78.1747C108.32 75.8792 107.065 74.0449 105.259 72.6716C103.452 71.2984 101.102 70.4266 98.2093 70.0563L91.3124 69.1735L87.5731 98.3883Z" fill="black"/>
</svg>
